<svg id="Groupe_49" data-name="Groupe 49" xmlns="http://www.w3.org/2000/svg" width="96.674" height="29.346" viewBox="0 0 96.674 29.346">
  <g id="Groupe_48" data-name="Groupe 48">
    <g id="Groupe_32" data-name="Groupe 32" transform="translate(13.408)">
      <path id="Tracé_17" data-name="Tracé 17" d="M40.372,2.5a3.048,3.048,0,0,1,2.222,2.592q-.4,1.862-.926,3.7-.952.792-1.481-.37A8.025,8.025,0,0,1,40.372,2.5Z" transform="translate(-39.708 -2.5)" fill="#4265d3" fill-rule="evenodd"/>
    </g>
    <g id="Groupe_33" data-name="Groupe 33" transform="translate(16.609 4.756)">
      <path id="Tracé_18" data-name="Tracé 18" d="M49.147,19.475a2.121,2.121,0,0,1-.741-2.222A2.224,2.224,0,0,1,51.184,15.4,3.646,3.646,0,0,1,49.147,19.475Z" transform="translate(-48.352 -15.345)" fill="#4265d3" fill-rule="evenodd"/>
    </g>
    <g id="Groupe_34" data-name="Groupe 34" transform="translate(9.956 4.814)">
      <path id="Tracé_19" data-name="Tracé 19" d="M30.428,15.5q3.753.61,3.332,4.443Q30.008,19.333,30.428,15.5Z" transform="translate(-30.386 -15.5)" fill="#4265d3" fill-rule="evenodd"/>
    </g>
    <g id="Groupe_35" data-name="Groupe 35" transform="translate(16.254 6.665)">
      <path id="Tracé_20" data-name="Tracé 20" d="M47.8,20.5a2.121,2.121,0,0,0,.741,2.222,1.061,1.061,0,0,1-1.111.37A4.76,4.76,0,0,1,47.8,20.5Z" transform="translate(-47.393 -20.5)" fill="rgba(66,101,211,0.6)" fill-rule="evenodd"/>
    </g>
    <g id="Groupe_37" data-name="Groupe 37" transform="translate(0 8.887)">
      <path id="Tracé_22" data-name="Tracé 22" d="M10.9,26.5Q9.54,30.129,8.5,33.906q-1.188,8.734,6.85,12.219a.408.408,0,0,0,.37-.37,2.422,2.422,0,0,1,1.111,1.111q-13.01-.607-13.33-13.7a16.238,16.238,0,0,1,.555-4.443Q3.916,33.3,7.2,30.388q-2.667-.633-1.481-3.147a2.164,2.164,0,0,1,3.147,1.111A14.233,14.233,0,0,1,10.9,26.5Z" transform="translate(-3.496 -26.5)" fill="#4265d3" fill-rule="evenodd"/>
    </g>
    <g id="Groupe_38" data-name="Groupe 38" transform="translate(15.923 8.516)">
      <path id="Tracé_23" data-name="Tracé 23" d="M46.5,46.235l1.851-1.481a.408.408,0,0,0,.37.37q8.212-4.537,5.739-13.7A56.985,56.985,0,0,1,52.424,25.5a9.492,9.492,0,0,0,2.222,2.222q.8-2.2,2.962-1.111,1,2.359-1.481,3.147,3.284,2.911,3.147-1.666,2.857,9.2-4.258,15.737A11.179,11.179,0,0,1,46.5,46.235Z" transform="translate(-46.5 -25.5)" fill="#4265d3" fill-rule="evenodd"/>
    </g>
    <g id="Groupe_39" data-name="Groupe 39" transform="translate(9.647 10.763)">
      <path id="Tracé_24" data-name="Tracé 24" d="M32.494,33.764a1.113,1.113,0,0,0-.741.741q-2.808.877-2.037-2.222a1.481,1.481,0,0,1,2.407-.185A2.4,2.4,0,0,1,32.494,33.764Z" transform="translate(-29.551 -31.567)" fill="#4265d3" fill-rule="evenodd"/>
    </g>
    <g id="Groupe_40" data-name="Groupe 40" transform="translate(16.992 11.085)">
      <path id="Tracé_25" data-name="Tracé 25" d="M49.8,35.422a.6.6,0,0,0-.37-.741Q49.051,31.5,52.02,32.83,52.969,35.774,49.8,35.422Z" transform="translate(-49.385 -32.436)" fill="#4265d3" fill-rule="evenodd"/>
    </g>
    <g id="Groupe_41" data-name="Groupe 41" transform="translate(7.777 11.108)">
      <path id="Tracé_26" data-name="Tracé 26" d="M24.87,36.2a1.061,1.061,0,0,0-.37-1.111,10.848,10.848,0,0,1,.926-2.592A8.357,8.357,0,0,1,24.87,36.2Z" transform="translate(-24.5 -32.5)" fill="rgba(66,101,211,0.6)" fill-rule="evenodd"/>
    </g>
    <g id="Groupe_42" data-name="Groupe 42" transform="translate(15.68 12.219)">
      <path id="Tracé_27" data-name="Tracé 27" d="M46.827,36.611a.6.6,0,0,0-.37.741,1.283,1.283,0,0,1-.37-1.851A1.016,1.016,0,0,1,46.827,36.611Z" transform="translate(-45.843 -35.5)" fill="rgba(66,101,211,0.6)" fill-rule="evenodd"/>
    </g>
    <g id="Groupe_43" data-name="Groupe 43" transform="translate(11.85 12.96)">
      <path id="Tracé_28" data-name="Tracé 28" d="M36.241,37.5a.327.327,0,0,0,.37.37,1.113,1.113,0,0,1-.741.741.327.327,0,0,0-.37-.37A1.113,1.113,0,0,1,36.241,37.5Z" transform="translate(-35.5 -37.5)" fill="rgba(66,101,211,0.3)" fill-rule="evenodd"/>
    </g>
    <g id="Groupe_44" data-name="Groupe 44" transform="translate(15.183 13.33)">
      <path id="Tracé_29" data-name="Tracé 29" d="M45.981,38.5h.37a.6.6,0,0,0,.37.741A6.453,6.453,0,0,0,49.5,42.2a1.644,1.644,0,0,0,.926-1.111,2.052,2.052,0,0,0,.555-1.111,36.448,36.448,0,0,1,.185,5.184,13.284,13.284,0,0,1-4.073,7.776l-1.851,1.481a.677.677,0,0,1-.741-.37,16.26,16.26,0,0,0,1.111-14.811A.6.6,0,0,1,45.981,38.5Z" transform="translate(-44.5 -38.5)" fill="#4265d3" fill-rule="evenodd"/>
    </g>
    <g id="Groupe_45" data-name="Groupe 45" transform="translate(20.737 11.479)">
      <path id="Tracé_30" data-name="Tracé 30" d="M60.241,34.611a3.557,3.557,0,0,0-.37,2.222,5.247,5.247,0,0,1-.185-3.332A1.247,1.247,0,0,1,60.241,34.611Z" transform="translate(-59.5 -33.5)" fill="rgba(66,101,211,0.21)" fill-rule="evenodd"/>
    </g>
    <g id="Groupe_46" data-name="Groupe 46" transform="translate(7.3 12.394)">
      <path id="Tracé_31" data-name="Tracé 31" d="M29.242,52.83a2.422,2.422,0,0,0-1.111-1.111,13.942,13.942,0,0,1-4.443-14.441,1.061,1.061,0,0,1,.37,1.111,10.208,10.208,0,0,1,.555,1.851,1.46,1.46,0,0,0,.741.37,6.453,6.453,0,0,0,2.777-2.962,1.113,1.113,0,0,0,.741-.741q.192-1.035,1.111-.926a15.387,15.387,0,0,0,.37,16.477A1.146,1.146,0,0,1,29.242,52.83Z" transform="translate(-23.21 -35.972)" fill="#4265d3" fill-rule="evenodd"/>
    </g>
    <g id="Groupe_47" data-name="Groupe 47" transform="translate(21.069 12.589)">
      <path id="Tracé_32" data-name="Tracé 32" d="M60.8,36.5a13.76,13.76,0,0,1,.37,7.406,36.448,36.448,0,0,0-.185-5.184,2.052,2.052,0,0,1-.555,1.111V38.722A3.557,3.557,0,0,1,60.8,36.5Z" transform="translate(-60.396 -36.5)" fill="rgba(66,101,211,0.6)" fill-rule="evenodd"/>
    </g>
  </g>
  <path id="Tracé_67" data-name="Tracé 67" d="M-8.926,0c.85,0,1.436-.937,1.543-2.1L-6.367-14H-9.16L-9.58-2.383-10-14h-2.8l1.025,11.9c.1,1.162.684,2.1,1.533,2.1Zm7.148,0A2.033,2.033,0,0,0,.186-2.1v-9.8A2.033,2.033,0,0,0-1.777-14H-4.014a2.033,2.033,0,0,0-1.963,2.1v9.8A2.033,2.033,0,0,0-4.014,0ZM-2.9-2.1a.282.282,0,0,1-.273-.283v-9.238A.282.282,0,0,1-2.9-11.9a.283.283,0,0,1,.283.283v9.238A.283.283,0,0,1-2.9-2.1ZM5.156,0V-11.9h1.68V-14H.674v2.1h1.68V0Zm7.549,0V-2.1H10.459a.282.282,0,0,1-.273-.283V-5.947h1.953v-2.1H10.186V-11.9h2.52V-14H7.383V-2.1A2.033,2.033,0,0,0,9.346,0Z" transform="translate(83.969 21.882)" fill="#4265d3"/>
  <path id="Tracé_68" data-name="Tracé 68" d="M-13.73,0a2.033,2.033,0,0,0,1.963-2.1v-9.8A2.033,2.033,0,0,0-13.73-14h-2.236a2.033,2.033,0,0,0-1.963,2.1v9.8A2.033,2.033,0,0,0-15.967,0Zm-1.123-2.1a.282.282,0,0,1-.273-.283v-9.238a.282.282,0,0,1,.273-.283.283.283,0,0,1,.283.283v9.238A.283.283,0,0,1-14.854-2.1ZM-4.863,0V-11.9A2.033,2.033,0,0,0-6.826-14a2.309,2.309,0,0,0-1.621.41L-8.506-14h-2.52V0h2.8V-11.621a.282.282,0,0,1,.273-.283.283.283,0,0,1,.283.283V0ZM1.514,0V-2.1h-2.52a.282.282,0,0,1-.273-.283V-14h-2.8V-2.1A2.033,2.033,0,0,0-2.119,0ZM4.961,0V-14h-2.8V0Zm6.963,0V-11.9A2.033,2.033,0,0,0,9.961-14a2.309,2.309,0,0,0-1.621.41L8.281-14H5.762V0h2.8V-11.621a.282.282,0,0,1,.273-.283.283.283,0,0,1,.283.283V0Zm6.1,0V-2.1H15.781a.282.282,0,0,1-.273-.283V-5.947h1.953v-2.1H15.508V-11.9h2.52V-14H12.705V-2.1A2.033,2.033,0,0,0,14.668,0Z" transform="translate(51.969 21.882)" fill="#fff"/>
</svg>
