<svg xmlns="http://www.w3.org/2000/svg" width="95.205" height="30.054" viewBox="0 0 95.205 30.054">
  <g id="Groupe_51" data-name="Groupe 51" transform="translate(-10 -10)">
    <path id="Tracé_66" data-name="Tracé 66" d="M-13.73,0a2.033,2.033,0,0,0,1.963-2.1v-9.8A2.033,2.033,0,0,0-13.73-14h-2.236a2.033,2.033,0,0,0-1.963,2.1v9.8A2.033,2.033,0,0,0-15.967,0Zm-1.123-2.1a.282.282,0,0,1-.273-.283v-9.238a.282.282,0,0,1,.273-.283.283.283,0,0,1,.283.283v9.238A.283.283,0,0,1-14.854-2.1ZM-4.863,0V-11.9A2.033,2.033,0,0,0-6.826-14a2.309,2.309,0,0,0-1.621.41L-8.506-14h-2.52V0h2.8V-11.621a.282.282,0,0,1,.273-.283.283.283,0,0,1,.283.283V0ZM1.514,0V-2.1h-2.52a.282.282,0,0,1-.273-.283V-14h-2.8V-2.1A2.033,2.033,0,0,0-2.119,0ZM4.961,0V-14h-2.8V0Zm6.963,0V-11.9A2.033,2.033,0,0,0,9.961-14a2.309,2.309,0,0,0-1.621.41L8.281-14H5.762V0h2.8V-11.621a.282.282,0,0,1,.273-.283.283.283,0,0,1,.283.283V0Zm6.1,0V-2.1H15.781a.282.282,0,0,1-.273-.283V-5.947h1.953v-2.1H15.508V-11.9h2.52V-14H12.705V-2.1A2.033,2.033,0,0,0,14.668,0Z" transform="translate(60.5 33)"/>
    <path id="Tracé_65" data-name="Tracé 65" d="M-8.926,0c.85,0,1.436-.937,1.543-2.1L-6.367-14H-9.16L-9.58-2.383-10-14h-2.8l1.025,11.9c.1,1.162.684,2.1,1.533,2.1Zm7.148,0A2.033,2.033,0,0,0,.186-2.1v-9.8A2.033,2.033,0,0,0-1.777-14H-4.014a2.033,2.033,0,0,0-1.963,2.1v9.8A2.033,2.033,0,0,0-4.014,0ZM-2.9-2.1a.282.282,0,0,1-.273-.283v-9.238A.282.282,0,0,1-2.9-11.9a.283.283,0,0,1,.283.283v9.238A.283.283,0,0,1-2.9-2.1ZM5.156,0V-11.9h1.68V-14H.674v2.1h1.68V0Zm7.549,0V-2.1H10.459a.282.282,0,0,1-.273-.283V-5.947h1.953v-2.1H10.186V-11.9h2.52V-14H7.383V-2.1A2.033,2.033,0,0,0,9.346,0Z" transform="translate(92.5 33)" fill="#4265d3"/>
    <g id="Groupe_49" data-name="Groupe 49" transform="translate(-1382 -1516)">
      <g id="Groupe_44" data-name="Groupe 44" transform="translate(1407.549 1539.651)">
        <path id="Tracé_29" data-name="Tracé 29" d="M46.017,38.5H46.4a.614.614,0,0,0,.379.758,6.609,6.609,0,0,0,2.844,3.034,1.684,1.684,0,0,0,.948-1.138,2.1,2.1,0,0,0,.569-1.138,37.327,37.327,0,0,1,.19,5.309,13.6,13.6,0,0,1-4.171,7.963l-1.9,1.517a.693.693,0,0,1-.758-.379,16.652,16.652,0,0,0,1.138-15.168A.614.614,0,0,1,46.017,38.5Z" transform="translate(-44.5 -38.5)" fill="#4265d3" fill-rule="evenodd"/>
      </g>
      <g id="Groupe_48" data-name="Groupe 48">
        <g id="Groupe_32" data-name="Groupe 32" transform="translate(1405.732 1526)">
          <path id="Tracé_17" data-name="Tracé 17" d="M40.388,2.5a3.121,3.121,0,0,1,2.275,2.654q-.413,1.907-.948,3.792-.975.811-1.517-.379A8.218,8.218,0,0,1,40.388,2.5Z" transform="translate(-39.708 -2.5)" fill="#4265d3" fill-rule="evenodd"/>
        </g>
        <g id="Groupe_33" data-name="Groupe 33" transform="translate(1409.009 1530.871)">
          <path id="Tracé_18" data-name="Tracé 18" d="M49.167,19.575a2.172,2.172,0,0,1-.758-2.275,2.277,2.277,0,0,1,2.844-1.9A3.734,3.734,0,0,1,49.167,19.575Z" transform="translate(-48.352 -15.345)" fill="#4265d3" fill-rule="evenodd"/>
        </g>
        <g id="Groupe_34" data-name="Groupe 34" transform="translate(1402.197 1530.93)">
          <path id="Tracé_19" data-name="Tracé 19" d="M30.429,15.5q3.843.625,3.413,4.55Q30,19.425,30.429,15.5Z" transform="translate(-30.386 -15.5)" fill="#4265d3" fill-rule="evenodd"/>
        </g>
        <g id="Groupe_35" data-name="Groupe 35" transform="translate(1408.646 1532.826)">
          <path id="Tracé_20" data-name="Tracé 20" d="M47.813,20.5a2.172,2.172,0,0,0,.758,2.275,1.086,1.086,0,0,1-1.138.379A4.875,4.875,0,0,1,47.813,20.5Z" transform="translate(-47.393 -20.5)" fill="rgba(66,101,211,0.6)" fill-rule="evenodd"/>
        </g>
        <g id="Groupe_37" data-name="Groupe 37" transform="translate(1392 1535.101)">
          <path id="Tracé_22" data-name="Tracé 22" d="M11.082,26.5q-1.4,3.716-2.465,7.584Q7.4,43.029,15.632,46.6a.418.418,0,0,0,.379-.379,2.48,2.48,0,0,1,1.138,1.138Q3.825,46.735,3.5,33.326a16.629,16.629,0,0,1,.569-4.55q-.14,4.688,3.223,1.706-2.732-.648-1.517-3.223A2.217,2.217,0,0,1,9,28.4,14.577,14.577,0,0,1,11.082,26.5Z" transform="translate(-3.496 -26.5)" fill="#4265d3" fill-rule="evenodd"/>
        </g>
        <g id="Groupe_38" data-name="Groupe 38" transform="translate(1408.307 1534.722)">
          <path id="Tracé_23" data-name="Tracé 23" d="M46.5,46.735l1.9-1.517a.418.418,0,0,0,.379.379q8.41-4.646,5.878-14.031A58.359,58.359,0,0,1,52.567,25.5a9.721,9.721,0,0,0,2.275,2.275q.823-2.256,3.034-1.138,1.02,2.416-1.517,3.223,3.363,2.982,3.223-1.706,2.926,9.425-4.361,16.116A11.448,11.448,0,0,1,46.5,46.735Z" transform="translate(-46.5 -25.5)" fill="#4265d3" fill-rule="evenodd"/>
        </g>
        <g id="Groupe_39" data-name="Groupe 39" transform="translate(1401.88 1537.022)">
          <path id="Tracé_24" data-name="Tracé 24" d="M32.565,33.817a1.14,1.14,0,0,0-.758.758q-2.876.9-2.086-2.275a1.517,1.517,0,0,1,2.465-.19A2.457,2.457,0,0,1,32.565,33.817Z" transform="translate(-29.551 -31.567)" fill="#4265d3" fill-rule="evenodd"/>
        </g>
        <g id="Groupe_40" data-name="Groupe 40" transform="translate(1409.401 1537.352)">
          <path id="Tracé_25" data-name="Tracé 25" d="M49.808,35.494a.614.614,0,0,0-.379-.758q-.386-3.262,2.654-1.9Q53.056,35.854,49.808,35.494Z" transform="translate(-49.385 -32.436)" fill="#4265d3" fill-rule="evenodd"/>
        </g>
        <g id="Groupe_41" data-name="Groupe 41" transform="translate(1399.965 1537.376)">
          <path id="Tracé_26" data-name="Tracé 26" d="M24.879,36.292a1.086,1.086,0,0,0-.379-1.138,11.109,11.109,0,0,1,.948-2.654A8.559,8.559,0,0,1,24.879,36.292Z" transform="translate(-24.5 -32.5)" fill="rgba(66,101,211,0.6)" fill-rule="evenodd"/>
        </g>
        <g id="Groupe_42" data-name="Groupe 42" transform="translate(1408.058 1538.514)">
          <path id="Tracé_27" data-name="Tracé 27" d="M46.851,36.638a.614.614,0,0,0-.379.758,1.314,1.314,0,0,1-.379-1.9A1.041,1.041,0,0,1,46.851,36.638Z" transform="translate(-45.843 -35.5)" fill="rgba(66,101,211,0.6)" fill-rule="evenodd"/>
        </g>
        <g id="Groupe_43" data-name="Groupe 43" transform="translate(1404.136 1539.272)">
          <path id="Tracé_28" data-name="Tracé 28" d="M36.258,37.5a.335.335,0,0,0,.379.379,1.14,1.14,0,0,1-.758.758.335.335,0,0,0-.379-.379A1.14,1.14,0,0,1,36.258,37.5Z" transform="translate(-35.5 -37.5)" fill="rgba(66,101,211,0.3)" fill-rule="evenodd"/>
        </g>
        <g id="Groupe_45" data-name="Groupe 45" transform="translate(1413.237 1537.755)">
          <path id="Tracé_30" data-name="Tracé 30" d="M60.259,34.638a3.643,3.643,0,0,0-.379,2.275,5.373,5.373,0,0,1-.19-3.413A1.277,1.277,0,0,1,60.259,34.638Z" transform="translate(-59.5 -33.5)" fill="rgba(66,101,211,0.21)" fill-rule="evenodd"/>
        </g>
        <g id="Groupe_46" data-name="Groupe 46" transform="translate(1399.476 1538.693)">
          <path id="Tracé_31" data-name="Tracé 31" d="M29.387,53.236A2.481,2.481,0,0,0,28.25,52.1,14.279,14.279,0,0,1,23.7,37.31a1.086,1.086,0,0,1,.379,1.138,10.454,10.454,0,0,1,.569,1.9,1.5,1.5,0,0,0,.758.379,6.609,6.609,0,0,0,2.844-3.034,1.14,1.14,0,0,0,.758-.758q.2-1.06,1.138-.948a15.758,15.758,0,0,0,.379,16.875A1.173,1.173,0,0,1,29.387,53.236Z" transform="translate(-23.21 -35.972)" fill="#4265d3" fill-rule="evenodd"/>
        </g>
        <g id="Groupe_47" data-name="Groupe 47" transform="translate(1413.577 1538.893)">
          <path id="Tracé_32" data-name="Tracé 32" d="M60.815,36.5a14.092,14.092,0,0,1,.379,7.584A37.327,37.327,0,0,0,61,38.775a2.1,2.1,0,0,1-.569,1.138V38.775A3.643,3.643,0,0,1,60.815,36.5Z" transform="translate(-60.396 -36.5)" fill="rgba(66,101,211,0.6)" fill-rule="evenodd"/>
        </g>
      </g>
    </g>
  </g>
</svg>
