<svg id="Groupe_65" data-name="Groupe 65" xmlns="http://www.w3.org/2000/svg" width="65.615" height="50" viewBox="0 0 65.615 50">
  <path id="Tracé_36" data-name="Tracé 36" d="M205.816,72.86a1.19,1.19,0,0,0,1.693,0l1.693-1.684a1.174,1.174,0,0,0,0-1.684l-3.833-3.812a1.19,1.19,0,0,0-1.693,0l-1.693,1.684a1.175,1.175,0,0,0,0,1.684l.163.162-1.192,1.185a21.021,21.021,0,0,0-10.645-4.4V63.835h1.314a1.19,1.19,0,0,0,1.192-1.185v-3.5a1.19,1.19,0,0,0-1.192-1.185H184.01a1.19,1.19,0,0,0-1.192,1.185v3.5a1.19,1.19,0,0,0,1.192,1.185h1.314V65.99a21.208,21.208,0,0,0-10.645,4.4l-1.192-1.185.163-.162a1.174,1.174,0,0,0,0-1.684l-1.693-1.684a1.19,1.19,0,0,0-1.693,0l-3.833,3.812a1.174,1.174,0,0,0,0,1.684l1.693,1.684a1.19,1.19,0,0,0,1.693,0l.163-.162,1.192,1.185A20.866,20.866,0,0,0,166.634,86.9a21.182,21.182,0,1,0,37.827-13.012l1.192-1.185Zm-18,30.226a16.178,16.178,0,1,1,16.266-16.177A16.244,16.244,0,0,1,187.816,103.086Z" transform="translate(-143.942 -57.962)"/>
  <path id="Tracé_37" data-name="Tracé 37" d="M50.1,314.677a2.1,2.1,0,1,0,0,4.2h11.39a1.962,1.962,0,0,0,.637-.108,24.539,24.539,0,0,1-1.3-4.1H50.1Z" transform="translate(-41.499 -280.103)"/>
  <path id="Tracé_38" data-name="Tracé 38" d="M20.613,200.27a2.307,2.307,0,0,0-.623-.108H2.1a2.1,2.1,0,0,0,0,4.2H19.313A24.73,24.73,0,0,1,20.613,200.27Z" transform="translate(0 -181.017)"/>
  <path id="Tracé_39" data-name="Tracé 39" d="M37.365,259.548c0-.7.041-1.395.095-2.086H23.7a2.1,2.1,0,0,0,0,4.2H37.446C37.405,260.97,37.365,260.266,37.365,259.548Z" transform="translate(-18.675 -230.603)"/>
  <path id="Tracé_40" data-name="Tracé 40" d="M316.066,224.075a1.292,1.292,0,0,0-1.693-.5l-7.327,3.589a3.264,3.264,0,0,0-2.871.2,3.224,3.224,0,1,0,4.835,3.142l6.677-4.7A1.29,1.29,0,0,0,316.066,224.075Zm-8.871,6.406a1.413,1.413,0,1,1-1.016-1.72A1.423,1.423,0,0,1,307.2,230.481Z" transform="translate(-261.889 -201.176)"/>
  <path id="Tracé_41" data-name="Tracé 41" d="M356.108,197.452a1.317,1.317,0,1,0-.488-.474A1.63,1.63,0,0,0,356.108,197.452Z" transform="translate(-307.57 -176.526)"/>
  <path id="Tracé_42" data-name="Tracé 42" d="M317.527,187.4a1.321,1.321,0,1,0-1.327-1.314,1.346,1.346,0,0,0,.176.664A1.3,1.3,0,0,0,317.527,187.4Z" transform="translate(-273.618 -167.687)"/>
  <path id="Tracé_43" data-name="Tracé 43" d="M318.914,341.663h0A1.338,1.338,0,0,0,317.6,343a1.3,1.3,0,0,0,1.327,1.3,1.318,1.318,0,0,0,1.3-1.341A1.3,1.3,0,0,0,318.914,341.663Z" transform="translate(-274.83 -303.461)"/>
  <path id="Tracé_44" data-name="Tracé 44" d="M357.363,331a1.308,1.308,0,0,0-.46,1.8h0a1.321,1.321,0,0,0,2.275-1.341A1.338,1.338,0,0,0,357.363,331Z" transform="translate(-308.677 -294.079)"/>
  <path id="Tracé_45" data-name="Tracé 45" d="M387.108,302.089a1.323,1.323,0,0,0-1.788,1.828,1.263,1.263,0,0,0,.488.474,1.322,1.322,0,0,0,1.3-2.3Z" transform="translate(-333.27 -269.07)"/>
  <path id="Tracé_46" data-name="Tracé 46" d="M240.941,265.377a1.321,1.321,0,1,0-2.641.027,1.321,1.321,0,0,0,2.641-.027Z" transform="translate(-206.209 -236.31)"/>
  <path id="Tracé_47" data-name="Tracé 47" d="M249.963,303.361a1.308,1.308,0,0,0-.46,1.8h0a1.324,1.324,0,1,0,2.275-1.354A1.335,1.335,0,0,0,249.963,303.361Z" transform="translate(-215.74 -270.154)"/>
  <path id="Tracé_48" data-name="Tracé 48" d="M395.3,263.889a1.261,1.261,0,0,0,.19.664,1.325,1.325,0,0,0,2.465-.677,1.327,1.327,0,0,0-2.655.014Z" transform="translate(-342.12 -235.011)"/>
  <path id="Tracé_49" data-name="Tracé 49" d="M249.055,227.291a1.314,1.314,0,0,0,1.8-.5h0a1.328,1.328,0,0,0-2.316-1.3,1.361,1.361,0,0,0,.014,1.327A1.407,1.407,0,0,0,249.055,227.291Z" transform="translate(-214.926 -202.351)"/>
  <path id="Tracé_50" data-name="Tracé 50" d="M278.717,198.108a.013.013,0,0,0,.014-.014c.014,0,.014,0,.014-.014h.014a1.324,1.324,0,0,0-1.354-2.275.013.013,0,0,0-.014.014c-.014,0-.014.014-.027.014a1.308,1.308,0,0,0-.461,1.8h0A1.33,1.33,0,0,0,278.717,198.108Z" transform="translate(-239.45 -177.088)"/>
  <path id="Tracé_51" data-name="Tracé 51" d="M280.208,331.75a1.323,1.323,0,0,0-1.788,1.828,1.4,1.4,0,0,0,.488.488,1.328,1.328,0,0,0,1.3-2.316Z" transform="translate(-240.766 -294.732)"/>
</svg>
