<svg xmlns="http://www.w3.org/2000/svg" width="51.682" height="49.952" viewBox="0 0 51.682 49.952">
  <g id="Groupe_86" data-name="Groupe 86" transform="translate(-60.029 0)">
    <path id="XMLID_29_" d="M125.657,125.307a3.67,3.67,0,1,0-3.671-3.67A3.67,3.67,0,0,0,125.657,125.307Z" transform="translate(-48.692 -106.003)"/>
    <path id="XMLID_28_" d="M261.265,121.193a3.67,3.67,0,1,0,3.67,3.671A3.67,3.67,0,0,0,261.265,121.193Z" transform="translate(-169.554 -108.878)"/>
    <path id="XMLID_27_" d="M128.3,76.316a4.943,4.943,0,0,1,4.66,3.345,2.82,2.82,0,0,1,1.628-.945,4.842,4.842,0,0,1-.478-5.781,1.765,1.765,0,0,0-.783-.264h-4.91a1.543,1.543,0,0,0-1.569.821l-1.9,4.152A5.1,5.1,0,0,1,128.3,76.316Z" transform="translate(-51.339 -65.632)"/>
    <path id="XMLID_26_" d="M153.081,14.371a3.21,3.21,0,1,0-3.211-3.209A3.21,3.21,0,0,0,153.081,14.371Z" transform="translate(-73.544 -7.952)"/>
    <path id="XMLID_25_" d="M298.209,104.267a4.905,4.905,0,0,1-1.217-3.214c0-.037.01-.071.011-.107h-4.44c-.016,0-.38.068-.451.091a4.831,4.831,0,0,1-.122.838,4.941,4.941,0,0,1,4.591,3.338A2.82,2.82,0,0,1,298.209,104.267Z" transform="translate(-200.209 -90.833)"/>
    <path id="XMLID_24_" d="M293.39,40.625a3.3,3.3,0,0,0,2.169-.824,4.93,4.93,0,0,1,1.083-1.819,3.374,3.374,0,0,0,.07-.678,3.322,3.322,0,1,0-3.322,3.321Z" transform="translate(-198.497 -31.153)"/>
    <path id="XMLID_23_" d="M193.67,138.957a1.758,1.758,0,0,0-1.794.939l-.545,1.195a4.9,4.9,0,0,1-1.109,2.428l-.019.043a3.358,3.358,0,0,1,2.019,1.569l1.688,3.7,1.528-3.347a2.805,2.805,0,0,1,2.032-1.57,4.809,4.809,0,0,1-.886-4.953Z" transform="translate(-109.491 -124.711)"/>
    <path id="XMLID_22_" d="M210.568,337.385a2.939,2.939,0,0,1-2.093.371v6.521a1.878,1.878,0,0,0,1.716,1.121,1.852,1.852,0,0,0,1.563-.894v-7.1A2.854,2.854,0,0,1,210.568,337.385Z" transform="translate(-125.776 -301.561)"/>
    <path id="XMLID_21_" d="M217.813,72.3a3.714,3.714,0,0,0,.474-.047,4.941,4.941,0,0,1,2.927-2.254,3.668,3.668,0,1,0-3.4,2.3Z" transform="translate(-130.827 -58.756)"/>
    <path id="XMLID_20_" d="M5.859,172.144a2.825,2.825,0,0,1,.077-2.179L7.927,165.6l3.243-7.1a2.815,2.815,0,0,1,1.884-1.549v-.2a4.892,4.892,0,0,1-1.035-2.7c-.068-.022-.434-.091-.451-.091H6.487a1.6,1.6,0,0,0-1.624.849L.128,165.182a1.42,1.42,0,0,0,2.584,1.18L5,161.345C5,161.754,5,167.961,5,179.029a1.7,1.7,0,1,0,3.409,0v-5.049a2.7,2.7,0,0,1-1.063-.241A2.826,2.826,0,0,1,5.859,172.144Z" transform="translate(60.029 -138.08)"/>
    <path id="XMLID_19_" d="M88.745,322.846v5.3a1.689,1.689,0,0,0,1.552,1.674v-8.551l-.083.18A2.814,2.814,0,0,1,88.745,322.846Z" transform="translate(-19.066 -287.196)"/>
    <path id="XMLID_18_" d="M55.8,93.637a3.321,3.321,0,1,0-3.322-3.32A3.321,3.321,0,0,0,55.8,93.637Z" transform="translate(13.256 -78.4)"/>
    <path id="XMLID_17_" d="M77.714,204.194l.7-1.539v-2.521l.576,1.26,1.725-3.78-2.149-4.708a1.767,1.767,0,0,0-1.794-.939H71.159a1.76,1.76,0,0,0-1.793.939l-5.234,11.467a1.569,1.569,0,1,0,2.856,1.3l2.531-5.545c0,4.188-.005,4.02-.005,19.544a1.884,1.884,0,0,0,3.767,0V208.449h1.375v11.227a1.883,1.883,0,0,0,3.767,0V207.5a2.817,2.817,0,0,1-.785-1.125A2.9,2.9,0,0,1,77.714,204.194Z" transform="translate(2.998 -171.958)"/>
    <path id="XMLID_16_" d="M341.923,154.589l-5.234-11.467a1.766,1.766,0,0,0-1.794-.939H329.28a1.76,1.76,0,0,0-1.794.939l-.545,1.195a4.894,4.894,0,0,1-1.109,2.427l-.019.043a2.925,2.925,0,0,1,2.019,1.57l5.233,11.466a2.774,2.774,0,0,1-.291,2.844v7.224a1.884,1.884,0,0,0,3.767,0c0-10.381-.005-16.187-.005-19.543l2.531,5.545a1.569,1.569,0,0,0,2.856-1.3Z" transform="translate(-230.354 -127.586)"/>
    <path id="XMLID_15_" d="M344.151,324.658l-.083-.181,0,.109v8.537a1.88,1.88,0,0,0,3.6-.762v-6.208A2.913,2.913,0,0,1,344.151,324.658Z" transform="translate(-246.624 -290.057)"/>
    <path id="XMLID_14_" d="M353.422,75.521a3.67,3.67,0,1,0-3.67-3.67A3.67,3.67,0,0,0,353.422,75.521Z" transform="translate(-251.69 -61.631)"/>
    <path id="XMLID_13_" d="M214.178,196.134a1.768,1.768,0,0,0-1.794-.939h-5.615a1.762,1.762,0,0,0-1.794.939L199.741,207.6a1.569,1.569,0,0,0,2.856,1.3l2.531-5.545v5.979c0,.009-.005.016-.005.025V222.9a1.884,1.884,0,0,0,3.767,0V211.675h1.375V222.9a1.883,1.883,0,1,0,3.767,0v-13.54c0-.008,0-.016,0-.025v-5.977l2.53,5.542a1.569,1.569,0,1,0,2.856-1.3Z" transform="translate(-117.865 -174.833)"/>
  </g>
</svg>
