<svg xmlns="http://www.w3.org/2000/svg" width="65.904" height="52.521" viewBox="0 0 65.904 52.521">
  <g id="Groupe_87" data-name="Groupe 87" transform="translate(-87.58)">
    <g id="Groupe_66" data-name="Groupe 66" transform="translate(87.58)">
      <path id="Tracé_52" data-name="Tracé 52" d="M57.22,1.5a29.062,29.062,0,0,1,10.136,9.214A6.518,6.518,0,0,1,63.9,16.243a2.356,2.356,0,0,0-2.3-.461q-.23,14.512-.461,29.025a3.764,3.764,0,0,1-2.995,2.073q-26.952.461-53.9,0a5.311,5.311,0,0,1-2.073-1.612A346.387,346.387,0,0,1,1.7,9.793,8.217,8.217,0,0,1,3.777,7.259L39.713,6.8a15.961,15.961,0,0,1,3.916-2.073,30.029,30.029,0,0,0,8.984.23A43.276,43.276,0,0,1,57.22,1.5Zm.461,3.225q3.223,3.107,6.68,5.989a2.6,2.6,0,0,1-.921,2.3q-3.7-3.581-7.141-7.371Q57.06,5.179,57.68,4.725ZM42.937,7.95q5.994-.115,11.978.23l4.837,4.837A21.613,21.613,0,0,1,51.23,21.08a36.882,36.882,0,0,1-12.67,1.612,1.915,1.915,0,0,1,.23-2.073Q42.262,20,45.7,19.237q2.289-2.373,4.607-4.377a26.944,26.944,0,0,0-3.686-3.455l-1.152-.23a43.008,43.008,0,0,1-5.759,1.382,1.707,1.707,0,0,1-1.843,1.382A2.237,2.237,0,0,1,38.33,12.1,21.264,21.264,0,0,0,42.937,7.95ZM5.159,9.332q15.666-.115,31.328.23a4.538,4.538,0,0,0-1.843,4.377q-6.684-.115-13.361.23l-.691.691q-.345,8.981-.23,17.968a74.831,74.831,0,0,0-8.293.23,1.67,1.67,0,0,0,0,2.3q19.35.461,38.7,0a1.461,1.461,0,0,0,.461-2.3,83.367,83.367,0,0,0-8.754-.23,29.889,29.889,0,0,1,.461-7.371,61.239,61.239,0,0,0,10.6-2.534,18.091,18.091,0,0,0,5.3-4.377q.461,12.439,0,24.878l-.691.691q-26.491.461-52.982,0l-.691-.691q-.461-16.586,0-33.171A1.983,1.983,0,0,0,5.159,9.332ZM43.4,14.4a2.717,2.717,0,0,1,2.3.691,7.218,7.218,0,0,1-3.225,2.073A3.292,3.292,0,0,1,43.4,14.4ZM23.588,16.7a141.5,141.5,0,0,1,16.125.461,9.443,9.443,0,0,0-3.225,1.612,26.97,26.97,0,0,0-4.837,5.759q-1.779-1.907-2.995.461a6.152,6.152,0,0,0,2.995,3.225A29.972,29.972,0,0,0,35.8,23.614a3.715,3.715,0,0,0,3.916,2.3v6.911H23.588Z" transform="translate(-1.451 -1.5)" fill-rule="evenodd"/>
    </g>
    <g id="Groupe_67" data-name="Groupe 67" transform="translate(100.059 46.503)">
      <path id="Tracé_53" data-name="Tracé 53" d="M30.363,102.466q15.9-.115,31.789.23,2.764,2.764,0,5.529-15.895.461-31.789,0Q26.712,105.382,30.363,102.466Z" transform="translate(-28.538 -102.437)" fill-rule="evenodd"/>
    </g>
  </g>
</svg>
