<svg xmlns="http://www.w3.org/2000/svg" width="49.003" height="49.003" viewBox="0 0 49.003 49.003">
  <path id="shield" d="M50.3,7.6a1.332,1.332,0,0,0-1.575-.175,20.729,20.729,0,0,1-21-4.9,1.692,1.692,0,0,0-2.45,0,20.729,20.729,0,0,1-21,4.9A1.332,1.332,0,0,0,2.7,7.6,2.161,2.161,0,0,0,2,9C2,36.477,14.076,45.578,25.8,50.828a1.488,1.488,0,0,0,1.4,0C38.928,45.578,51,36.477,51,9A2.161,2.161,0,0,0,50.3,7.6ZM36.477,22.476l-10.5,10.5a1.692,1.692,0,0,1-2.45,0l-5.25-5.25a1.733,1.733,0,0,1,2.45-2.45L24.752,29.3l9.276-9.276a1.733,1.733,0,0,1,2.45,2.45Z" transform="translate(-2 -2)"/>
</svg>
