<svg id="Groupe_49" data-name="Groupe 49" xmlns="http://www.w3.org/2000/svg" width="83.843" height="83.36" viewBox="0 0 83.843 83.36">
  <g id="Groupe_44" data-name="Groupe 44" transform="translate(43.127 37.864)">
    <path id="Tracé_29" data-name="Tracé 29" d="M48.707,38.5h1.052a1.7,1.7,0,0,0,1.052,2.1A18.33,18.33,0,0,0,58.7,49.018a4.67,4.67,0,0,0,2.629-3.155,5.83,5.83,0,0,0,1.578-3.155,103.532,103.532,0,0,1,.526,14.725A37.733,37.733,0,0,1,51.863,79.52L46.6,83.727a1.923,1.923,0,0,1-2.1-1.052Q56.253,62.308,47.655,40.6A1.7,1.7,0,0,1,48.707,38.5Z" transform="translate(-44.5 -38.5)" fill="#4265d3" fill-rule="evenodd"/>
  </g>
  <g id="Groupe_48" data-name="Groupe 48">
    <g id="Groupe_32" data-name="Groupe 32" transform="translate(38.087)">
      <path id="Tracé_17" data-name="Tracé 17" d="M41.593,2.5A8.658,8.658,0,0,1,47.9,9.863q-1.145,5.288-2.629,10.518-2.7,2.249-4.207-1.052A22.794,22.794,0,0,1,41.593,2.5Z" transform="translate(-39.708 -2.5)" fill="#4265d3" fill-rule="evenodd"/>
    </g>
    <g id="Groupe_33" data-name="Groupe 33" transform="translate(47.179 13.51)">
      <path id="Tracé_18" data-name="Tracé 18" d="M50.611,27.078q-2.852-2.237-2.1-6.311Q50.337,14.4,56.4,15.508,57.56,23.322,50.611,27.078Z" transform="translate(-48.352 -15.345)" fill="#4265d3" fill-rule="evenodd"/>
    </g>
    <g id="Groupe_34" data-name="Groupe 34" transform="translate(28.282 13.673)">
      <path id="Tracé_19" data-name="Tracé 19" d="M30.506,15.5q10.66,1.734,9.466,12.621Q29.312,26.388,30.506,15.5Z" transform="translate(-30.386 -15.5)" fill="#4265d3" fill-rule="evenodd"/>
    </g>
    <g id="Groupe_35" data-name="Groupe 35" transform="translate(46.169 18.932)">
      <path id="Tracé_20" data-name="Tracé 20" d="M48.557,20.5q-.749,4.074,2.1,6.311a3.013,3.013,0,0,1-3.155,1.052A13.521,13.521,0,0,1,48.557,20.5Z" transform="translate(-47.393 -20.5)" fill="rgba(66,101,211,0.6)" fill-rule="evenodd"/>
    </g>
    <g id="Groupe_37" data-name="Groupe 37" transform="translate(0 25.243)">
      <path id="Tracé_22" data-name="Tracé 22" d="M24.536,26.5Q20.662,36.807,17.7,47.536q-3.376,24.81,19.458,34.709a1.159,1.159,0,0,0,1.052-1.052,6.88,6.88,0,0,1,3.155,3.155Q4.408,82.625,3.5,45.432A46.124,46.124,0,0,1,5.078,32.811q-.389,13,8.94,4.733-7.577-1.8-4.207-8.94,5.9-2.653,8.94,3.155A40.431,40.431,0,0,1,24.536,26.5Z" transform="translate(-3.496 -26.5)" fill="#4265d3" fill-rule="evenodd"/>
    </g>
    <g id="Groupe_38" data-name="Groupe 38" transform="translate(45.231 24.191)">
      <path id="Tracé_23" data-name="Tracé 23" d="M46.5,84.4l5.259-4.207a1.159,1.159,0,0,0,1.052,1.052q23.327-12.886,16.3-38.916A161.866,161.866,0,0,1,63.329,25.5a26.963,26.963,0,0,0,6.311,6.311q2.283-6.258,8.414-3.155,2.831,6.7-4.207,8.94,9.329,8.27,8.94-4.733Q90.9,59,70.691,77.564A31.754,31.754,0,0,1,46.5,84.4Z" transform="translate(-46.5 -25.5)" fill="#4265d3" fill-rule="evenodd"/>
    </g>
    <g id="Groupe_39" data-name="Groupe 39" transform="translate(27.404 30.572)">
      <path id="Tracé_24" data-name="Tracé 24" d="M37.912,37.807a3.161,3.161,0,0,0-2.1,2.1Q27.832,42.4,30.023,33.6q3.092-3.784,6.837-.526A6.815,6.815,0,0,1,37.912,37.807Z" transform="translate(-29.551 -31.567)" fill="#4265d3" fill-rule="evenodd"/>
    </g>
    <g id="Groupe_40" data-name="Groupe 40" transform="translate(48.266 31.487)">
      <path id="Tracé_25" data-name="Tracé 25" d="M50.558,40.918a1.7,1.7,0,0,0-1.052-2.1q-1.071-9.049,7.363-5.259Q59.566,41.916,50.558,40.918Z" transform="translate(-49.385 -32.436)" fill="#4265d3" fill-rule="evenodd"/>
    </g>
    <g id="Groupe_41" data-name="Groupe 41" transform="translate(22.091 31.554)">
      <path id="Tracé_26" data-name="Tracé 26" d="M25.552,43.018A3.013,3.013,0,0,0,24.5,39.863,30.813,30.813,0,0,1,27.129,32.5,23.74,23.74,0,0,1,25.552,43.018Z" transform="translate(-24.5 -32.5)" fill="rgba(66,101,211,0.6)" fill-rule="evenodd"/>
    </g>
    <g id="Groupe_42" data-name="Groupe 42" transform="translate(44.54 34.709)">
      <path id="Tracé_27" data-name="Tracé 27" d="M48.638,38.655a1.7,1.7,0,0,0-1.052,2.1A3.644,3.644,0,0,1,46.534,35.5,2.886,2.886,0,0,1,48.638,38.655Z" transform="translate(-45.843 -35.5)" fill="rgba(66,101,211,0.6)" fill-rule="evenodd"/>
    </g>
    <g id="Groupe_43" data-name="Groupe 43" transform="translate(33.661 36.813)">
      <path id="Tracé_28" data-name="Tracé 28" d="M37.6,37.5a.93.93,0,0,0,1.052,1.052,3.161,3.161,0,0,1-2.1,2.1A.93.93,0,0,0,35.5,39.6,3.161,3.161,0,0,1,37.6,37.5Z" transform="translate(-35.5 -37.5)" fill="rgba(66,101,211,0.3)" fill-rule="evenodd"/>
    </g>
    <g id="Groupe_45" data-name="Groupe 45" transform="translate(58.904 32.605)">
      <path id="Tracé_30" data-name="Tracé 30" d="M61.6,36.655a10.1,10.1,0,0,0-1.052,6.311,14.9,14.9,0,0,1-.526-9.466A3.542,3.542,0,0,1,61.6,36.655Z" transform="translate(-59.5 -33.5)" fill="rgba(66,101,211,0.21)" fill-rule="evenodd"/>
    </g>
    <g id="Groupe_46" data-name="Groupe 46" transform="translate(20.735 35.205)">
      <path id="Tracé_31" data-name="Tracé 31" d="M40.344,83.858A6.88,6.88,0,0,0,37.188,80.7Q18.856,64.085,24.567,39.683a3.013,3.013,0,0,1,1.052,3.155A29,29,0,0,1,27.2,48.1a4.147,4.147,0,0,0,2.1,1.052,18.33,18.33,0,0,0,7.888-8.414,3.161,3.161,0,0,0,2.1-2.1q.546-2.939,3.155-2.629Q29.384,59.769,43.5,82.806A3.254,3.254,0,0,1,40.344,83.858Z" transform="translate(-23.21 -35.972)" fill="#4265d3" fill-rule="evenodd"/>
    </g>
    <g id="Groupe_47" data-name="Groupe 47" transform="translate(59.847 35.761)">
      <path id="Tracé_32" data-name="Tracé 32" d="M61.557,36.5a39.086,39.086,0,0,1,1.052,21.036,103.532,103.532,0,0,0-.526-14.725,5.83,5.83,0,0,1-1.578,3.155V42.811A10.1,10.1,0,0,1,61.557,36.5Z" transform="translate(-60.396 -36.5)" fill="rgba(66,101,211,0.6)" fill-rule="evenodd"/>
    </g>
  </g>
</svg>
